<svg width="800" height="400" xmlns="http://www.w3.org/2000/svg">
<rect width="100%" height="100%" fill="white"/>
<circle cx="66.7" cy="387.6" r="5" fill="#CBA052" stroke="none" stroke-width="0"/>
<circle cx="141.7" cy="373.2" r="5" fill="#CBA052" stroke="none" stroke-width="0"/>
<circle cx="183.3" cy="387.6" r="5" fill="#002D72" stroke="none" stroke-width="0"/>
<circle cx="216.7" cy="358.8" r="5" fill="#CBA052" stroke="none" stroke-width="0"/>
<circle cx="25.0" cy="373.2" r="5" fill="#CBA052" stroke="none" stroke-width="0"/>
<circle cx="16.7" cy="329.9" r="5" fill="#CBA052" stroke="none" stroke-width="0"/>
<circle cx="58.3" cy="344.3" r="5" fill="#002D72" stroke="none" stroke-width="0"/>
<circle cx="100.0" cy="358.8" r="5" fill="#CBA052" stroke="none" stroke-width="0"/>
<circle cx="91.7" cy="315.5" r="5" fill="#CBA052" stroke="none" stroke-width="0"/>
<circle cx="133.3" cy="329.9" r="5" fill="#002D72" stroke="none" stroke-width="0"/>
<circle cx="175.0" cy="344.3" r="5" fill="#CBA052" stroke="none" stroke-width="0"/>
<circle cx="166.7" cy="301.0" r="5" fill="#CBA052" stroke="none" stroke-width="0"/>
<circle cx="208.3" cy="315.5" r="5" fill="#002D72" stroke="none" stroke-width="0"/>
<circle cx="-25.0" cy="315.5" r="5" fill="#CBA052" stroke="none" stroke-width="0"/>
<circle cx="-33.3" cy="272.2" r="5" fill="#CBA052" stroke="none" stroke-width="0"/>
<circle cx="8.3" cy="286.6" r="5" fill="#002D72" stroke="none" stroke-width="0"/>
<circle cx="50.0" cy="301.0" r="5" fill="#CBA052" stroke="none" stroke-width="0"/>
<circle cx="41.7" cy="257.7" r="5" fill="#CBA052" stroke="none" stroke-width="0"/>
<circle cx="83.3" cy="272.2" r="5" fill="#002D72" stroke="none" stroke-width="0"/>
<circle cx="125.0" cy="286.6" r="5" fill="#CBA052" stroke="none" stroke-width="0"/>
<circle cx="116.7" cy="243.3" r="5" fill="#CBA052" stroke="none" stroke-width="0"/>
<circle cx="158.3" cy="257.7" r="5" fill="#002D72" stroke="none" stroke-width="0"/>
<circle cx="200.0" cy="272.2" r="5" fill="#CBA052" stroke="none" stroke-width="0"/>
<circle cx="191.7" cy="228.9" r="5" fill="#CBA052" stroke="none" stroke-width="0"/>
<circle cx="-75.0" cy="257.7" r="5" fill="#CBA052" stroke="none" stroke-width="0"/>
<circle cx="-83.3" cy="214.4" r="5" fill="#CBA052" stroke="none" stroke-width="0"/>
<circle cx="-41.7" cy="228.9" r="5" fill="#002D72" stroke="none" stroke-width="0"/>
<circle cx="0.0" cy="243.3" r="5" fill="#CBA052" stroke="none" stroke-width="0"/>
<circle cx="-8.3" cy="200.0" r="5" fill="#CBA052" stroke="none" stroke-width="0"/>
<circle cx="33.3" cy="214.4" r="5" fill="#002D72" stroke="none" stroke-width="0"/>
<circle cx="75.0" cy="228.9" r="5" fill="#CBA052" stroke="none" stroke-width="0"/>
<circle cx="108.3" cy="200.0" r="5" fill="#002D72" stroke="none" stroke-width="0"/>
<circle cx="150.0" cy="214.4" r="5" fill="#CBA052" stroke="none" stroke-width="0"/>
<circle cx="225.0" cy="200.0" r="5" fill="#CBA052" stroke="none" stroke-width="0"/>
<circle cx="541.7" cy="373.2" r="5" fill="#CBA052" stroke="none" stroke-width="0"/>
<circle cx="500.0" cy="387.6" r="5" fill="#CBA052" stroke="none" stroke-width="0"/>
<circle cx="466.7" cy="358.8" r="5" fill="#CBA052" stroke="black" stroke-width="2"/>
<circle cx="508.3" cy="344.3" r="5" fill="#002D72" stroke="none" stroke-width="0"/>
<circle cx="550.0" cy="329.9" r="5" fill="#CBA052" stroke="none" stroke-width="0"/>
<circle cx="516.7" cy="301.0" r="5" fill="#CBA052" stroke="none" stroke-width="0"/>
<circle cx="558.3" cy="286.6" r="5" fill="#002D72" stroke="none" stroke-width="0"/>
<circle cx="566.7" cy="243.3" r="5" fill="#CBA052" stroke="none" stroke-width="0"/>
<circle cx="383.3" cy="387.6" r="5" fill="#002D72" stroke="black" stroke-width="2"/>
<circle cx="425.0" cy="373.2" r="5" fill="#CBA052" stroke="black" stroke-width="2"/>
<circle cx="391.7" cy="344.3" r="5" fill="#CBA052" stroke="black" stroke-width="2"/>
<circle cx="433.3" cy="329.9" r="5" fill="#002D72" stroke="black" stroke-width="2"/>
<circle cx="475.0" cy="315.5" r="5" fill="#CBA052" stroke="none" stroke-width="0"/>
<circle cx="441.7" cy="286.6" r="5" fill="#CBA052" stroke="black" stroke-width="2"/>
<circle cx="483.3" cy="272.2" r="5" fill="#002D72" stroke="none" stroke-width="0"/>
<circle cx="525.0" cy="257.7" r="5" fill="#CBA052" stroke="none" stroke-width="0"/>
<circle cx="491.7" cy="228.9" r="5" fill="#CBA052" stroke="none" stroke-width="0"/>
<circle cx="533.3" cy="214.4" r="5" fill="#002D72" stroke="none" stroke-width="0"/>
<circle cx="575.0" cy="200.0" r="5" fill="#CBA052" stroke="none" stroke-width="0"/>
<circle cx="266.7" cy="387.6" r="5" fill="#CBA052" stroke="none" stroke-width="0"/>
<circle cx="308.3" cy="373.2" r="5" fill="#002D72" stroke="none" stroke-width="0"/>
<circle cx="350.0" cy="358.8" r="5" fill="#CBA052" stroke="black" stroke-width="2"/>
<circle cx="316.7" cy="329.9" r="5" fill="#CBA052" stroke="none" stroke-width="0"/>
<circle cx="358.3" cy="315.5" r="5" fill="#002D72" stroke="black" stroke-width="2"/>
<circle cx="400.0" cy="301.0" r="5" fill="#CBA052" stroke="black" stroke-width="2"/>
<circle cx="366.7" cy="272.2" r="5" fill="#CBA052" stroke="black" stroke-width="2"/>
<circle cx="408.3" cy="257.7" r="5" fill="#002D72" stroke="black" stroke-width="2"/>
<circle cx="450.0" cy="243.3" r="5" fill="#CBA052" stroke="black" stroke-width="2"/>
<circle cx="416.7" cy="214.4" r="5" fill="#CBA052" stroke="black" stroke-width="2"/>
<circle cx="458.3" cy="200.0" r="5" fill="#002D72" stroke="black" stroke-width="2"/>
<circle cx="233.3" cy="358.8" r="5" fill="#002D72" stroke="none" stroke-width="0"/>
<circle cx="275.0" cy="344.3" r="5" fill="#CBA052" stroke="none" stroke-width="0"/>
<circle cx="241.7" cy="315.5" r="5" fill="#CBA052" stroke="none" stroke-width="0"/>
<circle cx="283.3" cy="301.0" r="5" fill="#002D72" stroke="none" stroke-width="0"/>
<circle cx="325.0" cy="286.6" r="5" fill="#CBA052" stroke="none" stroke-width="0"/>
<circle cx="291.7" cy="257.7" r="5" fill="#CBA052" stroke="none" stroke-width="0"/>
<circle cx="333.3" cy="243.3" r="5" fill="#002D72" stroke="black" stroke-width="2"/>
<circle cx="375.0" cy="228.9" r="5" fill="#CBA052" stroke="black" stroke-width="2"/>
<circle cx="341.7" cy="200.0" r="5" fill="#CBA052" stroke="black" stroke-width="2"/>
<circle cx="250.0" cy="272.2" r="5" fill="#CBA052" stroke="none" stroke-width="0"/>
<circle cx="258.3" cy="228.9" r="5" fill="#002D72" stroke="none" stroke-width="0"/>
<circle cx="300.0" cy="214.4" r="5" fill="#CBA052" stroke="none" stroke-width="0"/>
<line x1="400" y1="0" x2="400" y2="400" stroke="black" stroke-dasharray="5,5"/>
<text x="410" y="20" font-family="Arial">GB Plane</text>
</svg>