<svg width="600" height="400" xmlns="http://www.w3.org/2000/svg">
<rect width="100%" height="100%" fill="white"/>
<circle cx="88.94" cy="350.00" r="4" fill="#CBA052" stroke="none"/>
<circle cx="75.96" cy="350.00" r="4" fill="#CBA052" stroke="none"/>
<circle cx="62.98" cy="350.00" r="4" fill="#CBA052" stroke="none"/>
<circle cx="50.00" cy="350.00" r="4" fill="#CBA052" stroke="none"/>
<circle cx="114.90" cy="350.00" r="4" fill="#CBA052" stroke="none"/>
<circle cx="101.92" cy="350.00" r="4" fill="#CBA052" stroke="none"/>
<circle cx="88.94" cy="350.00" r="4" fill="#CBA052" stroke="none"/>
<circle cx="75.96" cy="350.00" r="4" fill="#CBA052" stroke="none"/>
<circle cx="140.86" cy="350.00" r="4" fill="#CBA052" stroke="none"/>
<circle cx="127.88" cy="350.00" r="4" fill="#CBA052" stroke="none"/>
<circle cx="114.90" cy="350.00" r="4" fill="#CBA052" stroke="none"/>
<circle cx="101.92" cy="350.00" r="4" fill="#CBA052" stroke="none"/>
<circle cx="166.82" cy="350.00" r="4" fill="#CBA052" stroke="none"/>
<circle cx="153.84" cy="350.00" r="4" fill="#CBA052" stroke="none"/>
<circle cx="140.86" cy="350.00" r="4" fill="#CBA052" stroke="none"/>
<circle cx="127.88" cy="350.00" r="4" fill="#CBA052" stroke="none"/>
<circle cx="88.94" cy="339.76" r="4" fill="#002D72" stroke="none"/>
<circle cx="75.96" cy="339.76" r="4" fill="#002D72" stroke="none"/>
<circle cx="62.98" cy="339.76" r="4" fill="#002D72" stroke="none"/>
<circle cx="50.00" cy="339.76" r="4" fill="#002D72" stroke="none"/>
<circle cx="114.90" cy="339.76" r="4" fill="#002D72" stroke="none"/>
<circle cx="101.92" cy="339.76" r="4" fill="#002D72" stroke="none"/>
<circle cx="88.94" cy="339.76" r="4" fill="#002D72" stroke="none"/>
<circle cx="75.96" cy="339.76" r="4" fill="#002D72" stroke="none"/>
<circle cx="140.86" cy="339.76" r="4" fill="#002D72" stroke="none"/>
<circle cx="127.88" cy="339.76" r="4" fill="#002D72" stroke="none"/>
<circle cx="114.90" cy="339.76" r="4" fill="#002D72" stroke="none"/>
<circle cx="101.92" cy="339.76" r="4" fill="#002D72" stroke="none"/>
<circle cx="166.82" cy="339.76" r="4" fill="#002D72" stroke="none"/>
<circle cx="153.84" cy="339.76" r="4" fill="#002D72" stroke="none"/>
<circle cx="140.86" cy="339.76" r="4" fill="#002D72" stroke="none"/>
<circle cx="127.88" cy="339.76" r="4" fill="#002D72" stroke="none"/>
<circle cx="101.92" cy="327.79" r="4" fill="#A1B1C2" stroke="none"/>
<circle cx="88.94" cy="327.79" r="4" fill="#A1B1C2" stroke="none"/>
<circle cx="75.96" cy="327.79" r="4" fill="#A1B1C2" stroke="none"/>
<circle cx="62.98" cy="327.79" r="4" fill="#A1B1C2" stroke="none"/>
<circle cx="127.88" cy="327.79" r="4" fill="#A1B1C2" stroke="none"/>
<circle cx="114.90" cy="327.79" r="4" fill="#A1B1C2" stroke="none"/>
<circle cx="101.92" cy="327.79" r="4" fill="#A1B1C2" stroke="none"/>
<circle cx="88.94" cy="327.79" r="4" fill="#A1B1C2" stroke="none"/>
<circle cx="153.84" cy="327.79" r="4" fill="#A1B1C2" stroke="none"/>
<circle cx="140.86" cy="327.79" r="4" fill="#A1B1C2" stroke="none"/>
<circle cx="127.88" cy="327.79" r="4" fill="#A1B1C2" stroke="none"/>
<circle cx="114.90" cy="327.79" r="4" fill="#A1B1C2" stroke="none"/>
<circle cx="179.80" cy="327.79" r="4" fill="#A1B1C2" stroke="none"/>
<circle cx="166.82" cy="327.79" r="4" fill="#A1B1C2" stroke="none"/>
<circle cx="153.84" cy="327.79" r="4" fill="#A1B1C2" stroke="none"/>
<circle cx="140.86" cy="327.79" r="4" fill="#A1B1C2" stroke="none"/>
<circle cx="88.94" cy="315.82" r="4" fill="#002D72" stroke="none"/>
<circle cx="75.96" cy="315.82" r="4" fill="#002D72" stroke="none"/>
<circle cx="62.98" cy="315.82" r="4" fill="#002D72" stroke="none"/>
<circle cx="50.00" cy="315.82" r="4" fill="#002D72" stroke="none"/>
<circle cx="114.90" cy="315.82" r="4" fill="#002D72" stroke="none"/>
<circle cx="101.92" cy="315.82" r="4" fill="#002D72" stroke="none"/>
<circle cx="88.94" cy="315.82" r="4" fill="#002D72" stroke="none"/>
<circle cx="75.96" cy="315.82" r="4" fill="#002D72" stroke="none"/>
<circle cx="140.86" cy="315.82" r="4" fill="#002D72" stroke="none"/>
<circle cx="127.88" cy="315.82" r="4" fill="#002D72" stroke="none"/>
<circle cx="114.90" cy="315.82" r="4" fill="#002D72" stroke="none"/>
<circle cx="101.92" cy="315.82" r="4" fill="#002D72" stroke="none"/>
<circle cx="166.82" cy="315.82" r="4" fill="#002D72" stroke="none"/>
<circle cx="153.84" cy="315.82" r="4" fill="#002D72" stroke="none"/>
<circle cx="140.86" cy="315.82" r="4" fill="#002D72" stroke="none"/>
<circle cx="127.88" cy="315.82" r="4" fill="#002D72" stroke="none"/>
<circle cx="88.94" cy="305.58" r="4" fill="#A1B1C2" stroke="none"/>
<circle cx="75.96" cy="305.58" r="4" fill="#A1B1C2" stroke="none"/>
<circle cx="62.98" cy="305.58" r="4" fill="#A1B1C2" stroke="none"/>
<circle cx="50.00" cy="305.58" r="4" fill="#A1B1C2" stroke="none"/>
<circle cx="114.90" cy="305.58" r="4" fill="#A1B1C2" stroke="none"/>
<circle cx="101.92" cy="305.58" r="4" fill="#A1B1C2" stroke="none"/>
<circle cx="88.94" cy="305.58" r="4" fill="#A1B1C2" stroke="none"/>
<circle cx="75.96" cy="305.58" r="4" fill="#A1B1C2" stroke="none"/>
<circle cx="140.86" cy="305.58" r="4" fill="#A1B1C2" stroke="none"/>
<circle cx="127.88" cy="305.58" r="4" fill="#A1B1C2" stroke="none"/>
<circle cx="114.90" cy="305.58" r="4" fill="#A1B1C2" stroke="none"/>
<circle cx="101.92" cy="305.58" r="4" fill="#A1B1C2" stroke="none"/>
<circle cx="166.82" cy="305.58" r="4" fill="#A1B1C2" stroke="none"/>
<circle cx="153.84" cy="305.58" r="4" fill="#A1B1C2" stroke="none"/>
<circle cx="140.86" cy="305.58" r="4" fill="#A1B1C2" stroke="none"/>
<circle cx="127.88" cy="305.58" r="4" fill="#A1B1C2" stroke="none"/>
<circle cx="101.92" cy="286.11" r="4" fill="#A1B1C2" stroke="none"/>
<circle cx="88.94" cy="286.11" r="4" fill="#A1B1C2" stroke="none"/>
<circle cx="75.96" cy="286.11" r="4" fill="#A1B1C2" stroke="none"/>
<circle cx="62.98" cy="286.11" r="4" fill="#A1B1C2" stroke="none"/>
<circle cx="127.88" cy="286.11" r="4" fill="#A1B1C2" stroke="none"/>
<circle cx="114.90" cy="286.11" r="4" fill="#A1B1C2" stroke="none"/>
<circle cx="101.92" cy="286.11" r="4" fill="#A1B1C2" stroke="none"/>
<circle cx="88.94" cy="286.11" r="4" fill="#A1B1C2" stroke="none"/>
<circle cx="153.84" cy="286.11" r="4" fill="#A1B1C2" stroke="none"/>
<circle cx="140.86" cy="286.11" r="4" fill="#A1B1C2" stroke="none"/>
<circle cx="127.88" cy="286.11" r="4" fill="#A1B1C2" stroke="none"/>
<circle cx="114.90" cy="286.11" r="4" fill="#A1B1C2" stroke="none"/>
<circle cx="179.80" cy="286.11" r="4" fill="#A1B1C2" stroke="none"/>
<circle cx="166.82" cy="286.11" r="4" fill="#A1B1C2" stroke="none"/>
<circle cx="153.84" cy="286.11" r="4" fill="#A1B1C2" stroke="none"/>
<circle cx="140.86" cy="286.11" r="4" fill="#A1B1C2" stroke="none"/>
<circle cx="88.94" cy="275.87" r="4" fill="#002D72" stroke="none"/>
<circle cx="75.96" cy="275.87" r="4" fill="#002D72" stroke="none"/>
<circle cx="62.98" cy="275.87" r="4" fill="#002D72" stroke="none"/>
<circle cx="50.00" cy="275.87" r="4" fill="#002D72" stroke="none"/>
<circle cx="114.90" cy="275.87" r="4" fill="#002D72" stroke="none"/>
<circle cx="101.92" cy="275.87" r="4" fill="#002D72" stroke="none"/>
<circle cx="88.94" cy="275.87" r="4" fill="#002D72" stroke="none"/>
<circle cx="75.96" cy="275.87" r="4" fill="#002D72" stroke="none"/>
<circle cx="140.86" cy="275.87" r="4" fill="#002D72" stroke="none"/>
<circle cx="127.88" cy="275.87" r="4" fill="#002D72" stroke="none"/>
<circle cx="114.90" cy="275.87" r="4" fill="#002D72" stroke="none"/>
<circle cx="101.92" cy="275.87" r="4" fill="#002D72" stroke="none"/>
<circle cx="166.82" cy="275.87" r="4" fill="#002D72" stroke="none"/>
<circle cx="153.84" cy="275.87" r="4" fill="#002D72" stroke="none"/>
<circle cx="140.86" cy="275.87" r="4" fill="#002D72" stroke="none"/>
<circle cx="127.88" cy="275.87" r="4" fill="#002D72" stroke="none"/>
<circle cx="88.94" cy="263.90" r="4" fill="#A1B1C2" stroke="none"/>
<circle cx="75.96" cy="263.90" r="4" fill="#A1B1C2" stroke="none"/>
<circle cx="62.98" cy="263.90" r="4" fill="#A1B1C2" stroke="none"/>
<circle cx="50.00" cy="263.90" r="4" fill="#A1B1C2" stroke="none"/>
<circle cx="114.90" cy="263.90" r="4" fill="#A1B1C2" stroke="none"/>
<circle cx="101.92" cy="263.90" r="4" fill="#A1B1C2" stroke="none"/>
<circle cx="88.94" cy="263.90" r="4" fill="#A1B1C2" stroke="none"/>
<circle cx="75.96" cy="263.90" r="4" fill="#A1B1C2" stroke="none"/>
<circle cx="140.86" cy="263.90" r="4" fill="#A1B1C2" stroke="none"/>
<circle cx="127.88" cy="263.90" r="4" fill="#A1B1C2" stroke="none"/>
<circle cx="114.90" cy="263.90" r="4" fill="#A1B1C2" stroke="none"/>
<circle cx="101.92" cy="263.90" r="4" fill="#A1B1C2" stroke="none"/>
<circle cx="166.82" cy="263.90" r="4" fill="#A1B1C2" stroke="none"/>
<circle cx="153.84" cy="263.90" r="4" fill="#A1B1C2" stroke="none"/>
<circle cx="140.86" cy="263.90" r="4" fill="#A1B1C2" stroke="none"/>
<circle cx="127.88" cy="263.90" r="4" fill="#A1B1C2" stroke="none"/>
<circle cx="101.92" cy="251.92" r="4" fill="#002D72" stroke="none"/>
<circle cx="88.94" cy="251.92" r="4" fill="#002D72" stroke="none"/>
<circle cx="75.96" cy="251.92" r="4" fill="#002D72" stroke="none"/>
<circle cx="62.98" cy="251.92" r="4" fill="#002D72" stroke="none"/>
<circle cx="127.88" cy="251.92" r="4" fill="#002D72" stroke="none"/>
<circle cx="114.90" cy="251.92" r="4" fill="#002D72" stroke="none"/>
<circle cx="101.92" cy="251.92" r="4" fill="#002D72" stroke="none"/>
<circle cx="88.94" cy="251.92" r="4" fill="#002D72" stroke="none"/>
<circle cx="153.84" cy="251.92" r="4" fill="#002D72" stroke="none"/>
<circle cx="140.86" cy="251.92" r="4" fill="#002D72" stroke="none"/>
<circle cx="127.88" cy="251.92" r="4" fill="#002D72" stroke="none"/>
<circle cx="114.90" cy="251.92" r="4" fill="#002D72" stroke="none"/>
<circle cx="179.80" cy="251.92" r="4" fill="#002D72" stroke="none"/>
<circle cx="166.82" cy="251.92" r="4" fill="#002D72" stroke="none"/>
<circle cx="153.84" cy="251.92" r="4" fill="#002D72" stroke="none"/>
<circle cx="140.86" cy="251.92" r="4" fill="#002D72" stroke="none"/>
<circle cx="88.94" cy="241.68" r="4" fill="#A1B1C2" stroke="none"/>
<circle cx="75.96" cy="241.68" r="4" fill="#A1B1C2" stroke="none"/>
<circle cx="62.98" cy="241.68" r="4" fill="#A1B1C2" stroke="none"/>
<circle cx="50.00" cy="241.68" r="4" fill="#A1B1C2" stroke="none"/>
<circle cx="114.90" cy="241.68" r="4" fill="#A1B1C2" stroke="none"/>
<circle cx="101.92" cy="241.68" r="4" fill="#A1B1C2" stroke="none"/>
<circle cx="88.94" cy="241.68" r="4" fill="#A1B1C2" stroke="none"/>
<circle cx="75.96" cy="241.68" r="4" fill="#A1B1C2" stroke="none"/>
<circle cx="140.86" cy="241.68" r="4" fill="#A1B1C2" stroke="none"/>
<circle cx="127.88" cy="241.68" r="4" fill="#A1B1C2" stroke="none"/>
<circle cx="114.90" cy="241.68" r="4" fill="#A1B1C2" stroke="none"/>
<circle cx="101.92" cy="241.68" r="4" fill="#A1B1C2" stroke="none"/>
<circle cx="166.82" cy="241.68" r="4" fill="#A1B1C2" stroke="none"/>
<circle cx="153.84" cy="241.68" r="4" fill="#A1B1C2" stroke="none"/>
<circle cx="140.86" cy="241.68" r="4" fill="#A1B1C2" stroke="none"/>
<circle cx="127.88" cy="241.68" r="4" fill="#A1B1C2" stroke="none"/>
<circle cx="88.94" cy="222.21" r="4" fill="#A1B1C2" stroke="none"/>
<circle cx="75.96" cy="222.21" r="4" fill="#A1B1C2" stroke="none"/>
<circle cx="62.98" cy="222.21" r="4" fill="#A1B1C2" stroke="none"/>
<circle cx="50.00" cy="222.21" r="4" fill="#A1B1C2" stroke="none"/>
<circle cx="114.90" cy="222.21" r="4" fill="#A1B1C2" stroke="none"/>
<circle cx="101.92" cy="222.21" r="4" fill="#A1B1C2" stroke="none"/>
<circle cx="88.94" cy="222.21" r="4" fill="#A1B1C2" stroke="none"/>
<circle cx="75.96" cy="222.21" r="4" fill="#A1B1C2" stroke="none"/>
<circle cx="140.86" cy="222.21" r="4" fill="#A1B1C2" stroke="none"/>
<circle cx="127.88" cy="222.21" r="4" fill="#A1B1C2" stroke="none"/>
<circle cx="114.90" cy="222.21" r="4" fill="#A1B1C2" stroke="none"/>
<circle cx="101.92" cy="222.21" r="4" fill="#A1B1C2" stroke="none"/>
<circle cx="166.82" cy="222.21" r="4" fill="#A1B1C2" stroke="none"/>
<circle cx="153.84" cy="222.21" r="4" fill="#A1B1C2" stroke="none"/>
<circle cx="140.86" cy="222.21" r="4" fill="#A1B1C2" stroke="none"/>
<circle cx="127.88" cy="222.21" r="4" fill="#A1B1C2" stroke="none"/>
<circle cx="101.92" cy="211.98" r="4" fill="#002D72" stroke="none"/>
<circle cx="88.94" cy="211.98" r="4" fill="#002D72" stroke="none"/>
<circle cx="75.96" cy="211.98" r="4" fill="#002D72" stroke="none"/>
<circle cx="62.98" cy="211.98" r="4" fill="#002D72" stroke="none"/>
<circle cx="127.88" cy="211.98" r="4" fill="#002D72" stroke="none"/>
<circle cx="114.90" cy="211.98" r="4" fill="#002D72" stroke="none"/>
<circle cx="101.92" cy="211.98" r="4" fill="#002D72" stroke="none"/>
<circle cx="88.94" cy="211.98" r="4" fill="#002D72" stroke="none"/>
<circle cx="153.84" cy="211.98" r="4" fill="#002D72" stroke="none"/>
<circle cx="140.86" cy="211.98" r="4" fill="#002D72" stroke="none"/>
<circle cx="127.88" cy="211.98" r="4" fill="#002D72" stroke="none"/>
<circle cx="114.90" cy="211.98" r="4" fill="#002D72" stroke="none"/>
<circle cx="179.80" cy="211.98" r="4" fill="#002D72" stroke="none"/>
<circle cx="166.82" cy="211.98" r="4" fill="#002D72" stroke="none"/>
<circle cx="153.84" cy="211.98" r="4" fill="#002D72" stroke="none"/>
<circle cx="140.86" cy="211.98" r="4" fill="#002D72" stroke="none"/>
<circle cx="88.94" cy="200.00" r="4" fill="#A1B1C2" stroke="none"/>
<circle cx="75.96" cy="200.00" r="4" fill="#A1B1C2" stroke="none"/>
<circle cx="62.98" cy="200.00" r="4" fill="#A1B1C2" stroke="none"/>
<circle cx="50.00" cy="200.00" r="4" fill="#A1B1C2" stroke="none"/>
<circle cx="114.90" cy="200.00" r="4" fill="#A1B1C2" stroke="none"/>
<circle cx="101.92" cy="200.00" r="4" fill="#A1B1C2" stroke="none"/>
<circle cx="88.94" cy="200.00" r="4" fill="#A1B1C2" stroke="none"/>
<circle cx="75.96" cy="200.00" r="4" fill="#A1B1C2" stroke="none"/>
<circle cx="140.86" cy="200.00" r="4" fill="#A1B1C2" stroke="none"/>
<circle cx="127.88" cy="200.00" r="4" fill="#A1B1C2" stroke="none"/>
<circle cx="114.90" cy="200.00" r="4" fill="#A1B1C2" stroke="none"/>
<circle cx="101.92" cy="200.00" r="4" fill="#A1B1C2" stroke="none"/>
<circle cx="166.82" cy="200.00" r="4" fill="#A1B1C2" stroke="none"/>
<circle cx="153.84" cy="200.00" r="4" fill="#A1B1C2" stroke="none"/>
<circle cx="140.86" cy="200.00" r="4" fill="#A1B1C2" stroke="none"/>
<circle cx="127.88" cy="200.00" r="4" fill="#A1B1C2" stroke="none"/>
<circle cx="88.94" cy="188.03" r="4" fill="#002D72" stroke="none"/>
<circle cx="75.96" cy="188.03" r="4" fill="#002D72" stroke="none"/>
<circle cx="62.98" cy="188.03" r="4" fill="#002D72" stroke="none"/>
<circle cx="50.00" cy="188.03" r="4" fill="#002D72" stroke="none"/>
<circle cx="114.90" cy="188.03" r="4" fill="#002D72" stroke="none"/>
<circle cx="101.92" cy="188.03" r="4" fill="#002D72" stroke="none"/>
<circle cx="88.94" cy="188.03" r="4" fill="#002D72" stroke="none"/>
<circle cx="75.96" cy="188.03" r="4" fill="#002D72" stroke="none"/>
<circle cx="140.86" cy="188.03" r="4" fill="#002D72" stroke="none"/>
<circle cx="127.88" cy="188.03" r="4" fill="#002D72" stroke="none"/>
<circle cx="114.90" cy="188.03" r="4" fill="#002D72" stroke="none"/>
<circle cx="101.92" cy="188.03" r="4" fill="#002D72" stroke="none"/>
<circle cx="166.82" cy="188.03" r="4" fill="#002D72" stroke="none"/>
<circle cx="153.84" cy="188.03" r="4" fill="#002D72" stroke="none"/>
<circle cx="140.86" cy="188.03" r="4" fill="#002D72" stroke="none"/>
<circle cx="127.88" cy="188.03" r="4" fill="#002D72" stroke="none"/>
<circle cx="101.92" cy="177.79" r="4" fill="#A1B1C2" stroke="none"/>
<circle cx="88.94" cy="177.79" r="4" fill="#A1B1C2" stroke="none"/>
<circle cx="75.96" cy="177.79" r="4" fill="#A1B1C2" stroke="none"/>
<circle cx="62.98" cy="177.79" r="4" fill="#A1B1C2" stroke="none"/>
<circle cx="127.88" cy="177.79" r="4" fill="#A1B1C2" stroke="none"/>
<circle cx="114.90" cy="177.79" r="4" fill="#A1B1C2" stroke="none"/>
<circle cx="101.92" cy="177.79" r="4" fill="#A1B1C2" stroke="none"/>
<circle cx="88.94" cy="177.79" r="4" fill="#A1B1C2" stroke="none"/>
<circle cx="153.84" cy="177.79" r="4" fill="#A1B1C2" stroke="none"/>
<circle cx="140.86" cy="177.79" r="4" fill="#A1B1C2" stroke="none"/>
<circle cx="127.88" cy="177.79" r="4" fill="#A1B1C2" stroke="none"/>
<circle cx="114.90" cy="177.79" r="4" fill="#A1B1C2" stroke="none"/>
<circle cx="179.80" cy="177.79" r="4" fill="#A1B1C2" stroke="none"/>
<circle cx="166.82" cy="177.79" r="4" fill="#A1B1C2" stroke="none"/>
<circle cx="153.84" cy="177.79" r="4" fill="#A1B1C2" stroke="none"/>
<circle cx="140.86" cy="177.79" r="4" fill="#A1B1C2" stroke="none"/>
<circle cx="88.94" cy="158.32" r="4" fill="#A1B1C2" stroke="none"/>
<circle cx="75.96" cy="158.32" r="4" fill="#A1B1C2" stroke="none"/>
<circle cx="62.98" cy="158.32" r="4" fill="#A1B1C2" stroke="none"/>
<circle cx="50.00" cy="158.32" r="4" fill="#A1B1C2" stroke="none"/>
<circle cx="114.90" cy="158.32" r="4" fill="#A1B1C2" stroke="none"/>
<circle cx="101.92" cy="158.32" r="4" fill="#A1B1C2" stroke="none"/>
<circle cx="88.94" cy="158.32" r="4" fill="#A1B1C2" stroke="none"/>
<circle cx="75.96" cy="158.32" r="4" fill="#A1B1C2" stroke="none"/>
<circle cx="140.86" cy="158.32" r="4" fill="#A1B1C2" stroke="none"/>
<circle cx="127.88" cy="158.32" r="4" fill="#A1B1C2" stroke="none"/>
<circle cx="114.90" cy="158.32" r="4" fill="#A1B1C2" stroke="none"/>
<circle cx="101.92" cy="158.32" r="4" fill="#A1B1C2" stroke="none"/>
<circle cx="166.82" cy="158.32" r="4" fill="#A1B1C2" stroke="none"/>
<circle cx="153.84" cy="158.32" r="4" fill="#A1B1C2" stroke="none"/>
<circle cx="140.86" cy="158.32" r="4" fill="#A1B1C2" stroke="none"/>
<circle cx="127.88" cy="158.32" r="4" fill="#A1B1C2" stroke="none"/>
<circle cx="88.94" cy="148.08" r="4" fill="#002D72" stroke="none"/>
<circle cx="75.96" cy="148.08" r="4" fill="#002D72" stroke="none"/>
<circle cx="62.98" cy="148.08" r="4" fill="#002D72" stroke="none"/>
<circle cx="50.00" cy="148.08" r="4" fill="#002D72" stroke="none"/>
<circle cx="114.90" cy="148.08" r="4" fill="#002D72" stroke="none"/>
<circle cx="101.92" cy="148.08" r="4" fill="#002D72" stroke="none"/>
<circle cx="88.94" cy="148.08" r="4" fill="#002D72" stroke="none"/>
<circle cx="75.96" cy="148.08" r="4" fill="#002D72" stroke="none"/>
<circle cx="140.86" cy="148.08" r="4" fill="#002D72" stroke="none"/>
<circle cx="127.88" cy="148.08" r="4" fill="#002D72" stroke="none"/>
<circle cx="114.90" cy="148.08" r="4" fill="#002D72" stroke="none"/>
<circle cx="101.92" cy="148.08" r="4" fill="#002D72" stroke="none"/>
<circle cx="166.82" cy="148.08" r="4" fill="#002D72" stroke="none"/>
<circle cx="153.84" cy="148.08" r="4" fill="#002D72" stroke="none"/>
<circle cx="140.86" cy="148.08" r="4" fill="#002D72" stroke="none"/>
<circle cx="127.88" cy="148.08" r="4" fill="#002D72" stroke="none"/>
<circle cx="101.92" cy="136.11" r="4" fill="#A1B1C2" stroke="none"/>
<circle cx="88.94" cy="136.11" r="4" fill="#A1B1C2" stroke="none"/>
<circle cx="75.96" cy="136.11" r="4" fill="#A1B1C2" stroke="none"/>
<circle cx="62.98" cy="136.11" r="4" fill="#A1B1C2" stroke="none"/>
<circle cx="127.88" cy="136.11" r="4" fill="#A1B1C2" stroke="none"/>
<circle cx="114.90" cy="136.11" r="4" fill="#A1B1C2" stroke="none"/>
<circle cx="101.92" cy="136.11" r="4" fill="#A1B1C2" stroke="none"/>
<circle cx="88.94" cy="136.11" r="4" fill="#A1B1C2" stroke="none"/>
<circle cx="153.84" cy="136.11" r="4" fill="#A1B1C2" stroke="none"/>
<circle cx="140.86" cy="136.11" r="4" fill="#A1B1C2" stroke="none"/>
<circle cx="127.88" cy="136.11" r="4" fill="#A1B1C2" stroke="none"/>
<circle cx="114.90" cy="136.11" r="4" fill="#A1B1C2" stroke="none"/>
<circle cx="179.80" cy="136.11" r="4" fill="#A1B1C2" stroke="none"/>
<circle cx="166.82" cy="136.11" r="4" fill="#A1B1C2" stroke="none"/>
<circle cx="153.84" cy="136.11" r="4" fill="#A1B1C2" stroke="none"/>
<circle cx="140.86" cy="136.11" r="4" fill="#A1B1C2" stroke="none"/>
<circle cx="88.94" cy="124.14" r="4" fill="#002D72" stroke="none"/>
<circle cx="75.96" cy="124.14" r="4" fill="#002D72" stroke="none"/>
<circle cx="62.98" cy="124.14" r="4" fill="#002D72" stroke="none"/>
<circle cx="50.00" cy="124.14" r="4" fill="#002D72" stroke="none"/>
<circle cx="114.90" cy="124.14" r="4" fill="#002D72" stroke="none"/>
<circle cx="101.92" cy="124.14" r="4" fill="#002D72" stroke="none"/>
<circle cx="88.94" cy="124.14" r="4" fill="#002D72" stroke="none"/>
<circle cx="75.96" cy="124.14" r="4" fill="#002D72" stroke="none"/>
<circle cx="140.86" cy="124.14" r="4" fill="#002D72" stroke="none"/>
<circle cx="127.88" cy="124.14" r="4" fill="#002D72" stroke="none"/>
<circle cx="114.90" cy="124.14" r="4" fill="#002D72" stroke="none"/>
<circle cx="101.92" cy="124.14" r="4" fill="#002D72" stroke="none"/>
<circle cx="166.82" cy="124.14" r="4" fill="#002D72" stroke="none"/>
<circle cx="153.84" cy="124.14" r="4" fill="#002D72" stroke="none"/>
<circle cx="140.86" cy="124.14" r="4" fill="#002D72" stroke="none"/>
<circle cx="127.88" cy="124.14" r="4" fill="#002D72" stroke="none"/>
<circle cx="88.94" cy="113.90" r="4" fill="#A1B1C2" stroke="none"/>
<circle cx="75.96" cy="113.90" r="4" fill="#A1B1C2" stroke="none"/>
<circle cx="62.98" cy="113.90" r="4" fill="#A1B1C2" stroke="none"/>
<circle cx="50.00" cy="113.90" r="4" fill="#A1B1C2" stroke="none"/>
<circle cx="114.90" cy="113.90" r="4" fill="#A1B1C2" stroke="none"/>
<circle cx="101.92" cy="113.90" r="4" fill="#A1B1C2" stroke="none"/>
<circle cx="88.94" cy="113.90" r="4" fill="#A1B1C2" stroke="none"/>
<circle cx="75.96" cy="113.90" r="4" fill="#A1B1C2" stroke="none"/>
<circle cx="140.86" cy="113.90" r="4" fill="#A1B1C2" stroke="none"/>
<circle cx="127.88" cy="113.90" r="4" fill="#A1B1C2" stroke="none"/>
<circle cx="114.90" cy="113.90" r="4" fill="#A1B1C2" stroke="none"/>
<circle cx="101.92" cy="113.90" r="4" fill="#A1B1C2" stroke="none"/>
<circle cx="166.82" cy="113.90" r="4" fill="#A1B1C2" stroke="none"/>
<circle cx="153.84" cy="113.90" r="4" fill="#A1B1C2" stroke="none"/>
<circle cx="140.86" cy="113.90" r="4" fill="#A1B1C2" stroke="none"/>
<circle cx="127.88" cy="113.90" r="4" fill="#A1B1C2" stroke="none"/>
<circle cx="101.92" cy="94.43" r="4" fill="#A1B1C2" stroke="none"/>
<circle cx="88.94" cy="94.43" r="4" fill="#A1B1C2" stroke="none"/>
<circle cx="75.96" cy="94.43" r="4" fill="#A1B1C2" stroke="none"/>
<circle cx="62.98" cy="94.43" r="4" fill="#A1B1C2" stroke="none"/>
<circle cx="127.88" cy="94.43" r="4" fill="#A1B1C2" stroke="none"/>
<circle cx="114.90" cy="94.43" r="4" fill="#A1B1C2" stroke="none"/>
<circle cx="101.92" cy="94.43" r="4" fill="#A1B1C2" stroke="none"/>
<circle cx="88.94" cy="94.43" r="4" fill="#A1B1C2" stroke="none"/>
<circle cx="153.84" cy="94.43" r="4" fill="#A1B1C2" stroke="none"/>
<circle cx="140.86" cy="94.43" r="4" fill="#A1B1C2" stroke="none"/>
<circle cx="127.88" cy="94.43" r="4" fill="#A1B1C2" stroke="none"/>
<circle cx="114.90" cy="94.43" r="4" fill="#A1B1C2" stroke="none"/>
<circle cx="179.80" cy="94.43" r="4" fill="#A1B1C2" stroke="none"/>
<circle cx="166.82" cy="94.43" r="4" fill="#A1B1C2" stroke="none"/>
<circle cx="153.84" cy="94.43" r="4" fill="#A1B1C2" stroke="none"/>
<circle cx="140.86" cy="94.43" r="4" fill="#A1B1C2" stroke="none"/>
<circle cx="88.94" cy="84.19" r="4" fill="#002D72" stroke="none"/>
<circle cx="75.96" cy="84.19" r="4" fill="#002D72" stroke="none"/>
<circle cx="62.98" cy="84.19" r="4" fill="#002D72" stroke="none"/>
<circle cx="50.00" cy="84.19" r="4" fill="#002D72" stroke="none"/>
<circle cx="114.90" cy="84.19" r="4" fill="#002D72" stroke="none"/>
<circle cx="101.92" cy="84.19" r="4" fill="#002D72" stroke="none"/>
<circle cx="88.94" cy="84.19" r="4" fill="#002D72" stroke="none"/>
<circle cx="75.96" cy="84.19" r="4" fill="#002D72" stroke="none"/>
<circle cx="140.86" cy="84.19" r="4" fill="#002D72" stroke="none"/>
<circle cx="127.88" cy="84.19" r="4" fill="#002D72" stroke="none"/>
<circle cx="114.90" cy="84.19" r="4" fill="#002D72" stroke="none"/>
<circle cx="101.92" cy="84.19" r="4" fill="#002D72" stroke="none"/>
<circle cx="166.82" cy="84.19" r="4" fill="#002D72" stroke="none"/>
<circle cx="153.84" cy="84.19" r="4" fill="#002D72" stroke="none"/>
<circle cx="140.86" cy="84.19" r="4" fill="#002D72" stroke="none"/>
<circle cx="127.88" cy="84.19" r="4" fill="#002D72" stroke="none"/>
<circle cx="88.94" cy="72.22" r="4" fill="#A1B1C2" stroke="none"/>
<circle cx="75.96" cy="72.22" r="4" fill="#A1B1C2" stroke="none"/>
<circle cx="62.98" cy="72.22" r="4" fill="#A1B1C2" stroke="none"/>
<circle cx="50.00" cy="72.22" r="4" fill="#A1B1C2" stroke="none"/>
<circle cx="114.90" cy="72.22" r="4" fill="#A1B1C2" stroke="none"/>
<circle cx="101.92" cy="72.22" r="4" fill="#A1B1C2" stroke="none"/>
<circle cx="88.94" cy="72.22" r="4" fill="#A1B1C2" stroke="none"/>
<circle cx="75.96" cy="72.22" r="4" fill="#A1B1C2" stroke="none"/>
<circle cx="140.86" cy="72.22" r="4" fill="#A1B1C2" stroke="none"/>
<circle cx="127.88" cy="72.22" r="4" fill="#A1B1C2" stroke="none"/>
<circle cx="114.90" cy="72.22" r="4" fill="#A1B1C2" stroke="none"/>
<circle cx="101.92" cy="72.22" r="4" fill="#A1B1C2" stroke="none"/>
<circle cx="166.82" cy="72.22" r="4" fill="#A1B1C2" stroke="none"/>
<circle cx="153.84" cy="72.22" r="4" fill="#A1B1C2" stroke="none"/>
<circle cx="140.86" cy="72.22" r="4" fill="#A1B1C2" stroke="none"/>
<circle cx="127.88" cy="72.22" r="4" fill="#A1B1C2" stroke="none"/>
<circle cx="101.92" cy="60.24" r="4" fill="#002D72" stroke="none"/>
<circle cx="88.94" cy="60.24" r="4" fill="#002D72" stroke="none"/>
<circle cx="75.96" cy="60.24" r="4" fill="#002D72" stroke="none"/>
<circle cx="62.98" cy="60.24" r="4" fill="#002D72" stroke="none"/>
<circle cx="127.88" cy="60.24" r="4" fill="#002D72" stroke="none"/>
<circle cx="114.90" cy="60.24" r="4" fill="#002D72" stroke="none"/>
<circle cx="101.92" cy="60.24" r="4" fill="#002D72" stroke="none"/>
<circle cx="88.94" cy="60.24" r="4" fill="#002D72" stroke="none"/>
<circle cx="153.84" cy="60.24" r="4" fill="#002D72" stroke="none"/>
<circle cx="140.86" cy="60.24" r="4" fill="#002D72" stroke="none"/>
<circle cx="127.88" cy="60.24" r="4" fill="#002D72" stroke="none"/>
<circle cx="114.90" cy="60.24" r="4" fill="#002D72" stroke="none"/>
<circle cx="179.80" cy="60.24" r="4" fill="#002D72" stroke="none"/>
<circle cx="166.82" cy="60.24" r="4" fill="#002D72" stroke="none"/>
<circle cx="153.84" cy="60.24" r="4" fill="#002D72" stroke="none"/>
<circle cx="140.86" cy="60.24" r="4" fill="#002D72" stroke="none"/>
<circle cx="88.94" cy="50.01" r="4" fill="#CBA052" stroke="none"/>
<circle cx="75.96" cy="50.01" r="4" fill="#CBA052" stroke="none"/>
<circle cx="62.98" cy="50.01" r="4" fill="#CBA052" stroke="none"/>
<circle cx="50.00" cy="50.01" r="4" fill="#CBA052" stroke="none"/>
<circle cx="114.90" cy="50.01" r="4" fill="#CBA052" stroke="none"/>
<circle cx="101.92" cy="50.01" r="4" fill="#CBA052" stroke="none"/>
<circle cx="88.94" cy="50.01" r="4" fill="#CBA052" stroke="none"/>
<circle cx="75.96" cy="50.01" r="4" fill="#CBA052" stroke="none"/>
<circle cx="140.86" cy="50.01" r="4" fill="#CBA052" stroke="none"/>
<circle cx="127.88" cy="50.01" r="4" fill="#CBA052" stroke="none"/>
<circle cx="114.90" cy="50.01" r="4" fill="#CBA052" stroke="none"/>
<circle cx="101.92" cy="50.01" r="4" fill="#CBA052" stroke="none"/>
<circle cx="166.82" cy="50.01" r="4" fill="#CBA052" stroke="none"/>
<circle cx="153.84" cy="50.01" r="4" fill="#CBA052" stroke="none"/>
<circle cx="140.86" cy="50.01" r="4" fill="#CBA052" stroke="none"/>
<circle cx="127.88" cy="50.01" r="4" fill="#CBA052" stroke="none"/>
<text x="10" y="20" font-family="Arial" font-size="14" fill="black">Thickness: 49.73 A</text>
</svg>