<svg width="800" height="600" xmlns="http://www.w3.org/2000/svg">
<rect width="100%" height="100%" fill="white"/>
<circle cx="50.0" cy="550.0" r="4" fill="#CBA052" />
<circle cx="50.0" cy="540.5" r="4" fill="#CBA052" />
<circle cx="50.0" cy="532.8" r="4" fill="#002D72" />
<circle cx="75.3" cy="532.8" r="4" fill="#002D72" />
<circle cx="50.0" cy="523.7" r="4" fill="#002D72" />
<circle cx="75.3" cy="523.7" r="4" fill="#002D72" />
<circle cx="50.0" cy="515.9" r="4" fill="#CBA052" />
<circle cx="50.0" cy="515.9" r="4" fill="#CBA052" />
<circle cx="75.3" cy="515.9" r="4" fill="#CBA052" />
<circle cx="75.3" cy="506.4" r="4" fill="#CBA052" />
<circle cx="50.0" cy="506.4" r="4" fill="#CBA052" />
<circle cx="75.3" cy="506.4" r="4" fill="#CBA052" />
<circle cx="75.3" cy="497.0" r="4" fill="#CBA052" />
<circle cx="50.0" cy="497.0" r="4" fill="#CBA052" />
<circle cx="75.3" cy="497.0" r="4" fill="#CBA052" />
<circle cx="50.0" cy="489.2" r="4" fill="#002D72" />
<circle cx="75.3" cy="489.2" r="4" fill="#002D72" />
<circle cx="50.0" cy="489.2" r="4" fill="#002D72" />
<circle cx="50.0" cy="480.1" r="4" fill="#002D72" />
<circle cx="75.3" cy="480.1" r="4" fill="#002D72" />
<circle cx="50.0" cy="480.1" r="4" fill="#002D72" />
<circle cx="50.0" cy="472.4" r="4" fill="#CBA052" />
<circle cx="75.3" cy="472.4" r="4" fill="#CBA052" />
<circle cx="75.3" cy="472.4" r="4" fill="#CBA052" />
<circle cx="50.0" cy="462.9" r="4" fill="#CBA052" />
<circle cx="50.0" cy="462.9" r="4" fill="#CBA052" />
<circle cx="75.3" cy="462.9" r="4" fill="#CBA052" />
<circle cx="50.0" cy="453.4" r="4" fill="#CBA052" />
<circle cx="50.0" cy="453.4" r="4" fill="#CBA052" />
<circle cx="75.3" cy="453.4" r="4" fill="#CBA052" />
<circle cx="50.0" cy="445.6" r="4" fill="#002D72" />
<circle cx="75.3" cy="445.6" r="4" fill="#002D72" />
<circle cx="75.3" cy="445.6" r="4" fill="#002D72" />
<circle cx="50.0" cy="436.6" r="4" fill="#002D72" />
<circle cx="75.3" cy="436.6" r="4" fill="#002D72" />
<circle cx="75.3" cy="436.6" r="4" fill="#002D72" />
<circle cx="75.3" cy="428.8" r="4" fill="#CBA052" />
<circle cx="50.0" cy="428.8" r="4" fill="#CBA052" />
<circle cx="50.0" cy="428.8" r="4" fill="#CBA052" />
<circle cx="75.3" cy="419.3" r="4" fill="#CBA052" />
<circle cx="50.0" cy="419.3" r="4" fill="#CBA052" />
<circle cx="50.0" cy="419.3" r="4" fill="#CBA052" />
<circle cx="75.3" cy="409.8" r="4" fill="#CBA052" />
<circle cx="50.0" cy="409.8" r="4" fill="#CBA052" />
<circle cx="75.3" cy="409.8" r="4" fill="#CBA052" />
<circle cx="75.3" cy="402.1" r="4" fill="#002D72" />
<circle cx="50.0" cy="402.1" r="4" fill="#002D72" />
<circle cx="50.0" cy="402.1" r="4" fill="#002D72" />
<circle cx="50.0" cy="393.0" r="4" fill="#002D72" />
<circle cx="50.0" cy="393.0" r="4" fill="#002D72" />
<circle cx="75.3" cy="393.0" r="4" fill="#002D72" />
<circle cx="50.0" cy="385.2" r="4" fill="#CBA052" />
<circle cx="75.3" cy="385.2" r="4" fill="#CBA052" />
<circle cx="75.3" cy="385.2" r="4" fill="#CBA052" />
<circle cx="50.0" cy="375.8" r="4" fill="#CBA052" />
<circle cx="75.3" cy="375.8" r="4" fill="#CBA052" />
<circle cx="75.3" cy="375.8" r="4" fill="#CBA052" />
<circle cx="50.0" cy="366.3" r="4" fill="#CBA052" />
<circle cx="75.3" cy="366.3" r="4" fill="#CBA052" />
<circle cx="50.0" cy="366.3" r="4" fill="#CBA052" />
<circle cx="50.0" cy="358.5" r="4" fill="#002D72" />
<circle cx="75.3" cy="358.5" r="4" fill="#002D72" />
<circle cx="75.3" cy="358.5" r="4" fill="#002D72" />
<circle cx="50.0" cy="349.4" r="4" fill="#002D72" />
<circle cx="75.3" cy="349.4" r="4" fill="#002D72" />
<circle cx="75.3" cy="349.4" r="4" fill="#002D72" />
<circle cx="50.0" cy="341.7" r="4" fill="#CBA052" />
<circle cx="75.3" cy="341.7" r="4" fill="#CBA052" />
<circle cx="50.0" cy="341.7" r="4" fill="#CBA052" />
<circle cx="75.3" cy="332.2" r="4" fill="#CBA052" />
<circle cx="50.0" cy="332.2" r="4" fill="#CBA052" />
<circle cx="50.0" cy="332.2" r="4" fill="#CBA052" />
<circle cx="75.3" cy="322.7" r="4" fill="#CBA052" />
<circle cx="50.0" cy="322.7" r="4" fill="#CBA052" />
<circle cx="50.0" cy="315.0" r="4" fill="#002D72" />
<circle cx="50.0" cy="305.9" r="4" fill="red" />
<circle cx="50.0" cy="61.8" r="4" fill="#A1B1C2" />
<circle cx="50.0" cy="71.2" r="4" fill="#A1B1C2" />
<circle cx="50.0" cy="79.0" r="4" fill="#68ACE5" />
<circle cx="75.3" cy="79.0" r="4" fill="#68ACE5" />
<circle cx="50.0" cy="88.1" r="4" fill="#68ACE5" />
<circle cx="75.3" cy="88.1" r="4" fill="#68ACE5" />
<circle cx="50.0" cy="95.9" r="4" fill="#A1B1C2" />
<circle cx="50.0" cy="95.9" r="4" fill="#A1B1C2" />
<circle cx="75.3" cy="95.9" r="4" fill="#A1B1C2" />
<circle cx="75.3" cy="105.3" r="4" fill="#A1B1C2" />
<circle cx="50.0" cy="105.3" r="4" fill="#A1B1C2" />
<circle cx="75.3" cy="105.3" r="4" fill="#A1B1C2" />
<circle cx="75.3" cy="114.8" r="4" fill="#A1B1C2" />
<circle cx="50.0" cy="114.8" r="4" fill="#A1B1C2" />
<circle cx="75.3" cy="114.8" r="4" fill="#A1B1C2" />
<circle cx="50.0" cy="122.6" r="4" fill="#68ACE5" />
<circle cx="75.3" cy="122.6" r="4" fill="#68ACE5" />
<circle cx="50.0" cy="122.6" r="4" fill="#68ACE5" />
<circle cx="50.0" cy="131.6" r="4" fill="#68ACE5" />
<circle cx="75.3" cy="131.6" r="4" fill="#68ACE5" />
<circle cx="50.0" cy="131.6" r="4" fill="#68ACE5" />
<circle cx="50.0" cy="139.4" r="4" fill="#A1B1C2" />
<circle cx="75.3" cy="139.4" r="4" fill="#A1B1C2" />
<circle cx="75.3" cy="139.4" r="4" fill="#A1B1C2" />
<circle cx="50.0" cy="148.9" r="4" fill="#A1B1C2" />
<circle cx="50.0" cy="148.9" r="4" fill="#A1B1C2" />
<circle cx="75.3" cy="148.9" r="4" fill="#A1B1C2" />
<circle cx="50.0" cy="158.4" r="4" fill="#A1B1C2" />
<circle cx="50.0" cy="158.4" r="4" fill="#A1B1C2" />
<circle cx="75.3" cy="158.4" r="4" fill="#A1B1C2" />
<circle cx="50.0" cy="166.1" r="4" fill="#68ACE5" />
<circle cx="75.3" cy="166.1" r="4" fill="#68ACE5" />
<circle cx="75.3" cy="166.1" r="4" fill="#68ACE5" />
<circle cx="50.0" cy="175.2" r="4" fill="#68ACE5" />
<circle cx="75.3" cy="175.2" r="4" fill="#68ACE5" />
<circle cx="75.3" cy="175.2" r="4" fill="#68ACE5" />
<circle cx="75.3" cy="183.0" r="4" fill="#A1B1C2" />
<circle cx="50.0" cy="183.0" r="4" fill="#A1B1C2" />
<circle cx="50.0" cy="183.0" r="4" fill="#A1B1C2" />
<circle cx="75.3" cy="192.4" r="4" fill="#A1B1C2" />
<circle cx="50.0" cy="192.4" r="4" fill="#A1B1C2" />
<circle cx="50.0" cy="192.4" r="4" fill="#A1B1C2" />
<circle cx="75.3" cy="201.9" r="4" fill="#A1B1C2" />
<circle cx="50.0" cy="201.9" r="4" fill="#A1B1C2" />
<circle cx="75.3" cy="201.9" r="4" fill="#A1B1C2" />
<circle cx="75.3" cy="209.7" r="4" fill="#68ACE5" />
<circle cx="50.0" cy="209.7" r="4" fill="#68ACE5" />
<circle cx="50.0" cy="209.7" r="4" fill="#68ACE5" />
<circle cx="50.0" cy="218.8" r="4" fill="#68ACE5" />
<circle cx="50.0" cy="218.8" r="4" fill="#68ACE5" />
<circle cx="75.3" cy="218.8" r="4" fill="#68ACE5" />
<circle cx="50.0" cy="226.5" r="4" fill="#A1B1C2" />
<circle cx="75.3" cy="226.5" r="4" fill="#A1B1C2" />
<circle cx="75.3" cy="226.5" r="4" fill="#A1B1C2" />
<circle cx="50.0" cy="236.0" r="4" fill="#A1B1C2" />
<circle cx="75.3" cy="236.0" r="4" fill="#A1B1C2" />
<circle cx="75.3" cy="236.0" r="4" fill="#A1B1C2" />
<circle cx="50.0" cy="245.5" r="4" fill="#A1B1C2" />
<circle cx="75.3" cy="245.5" r="4" fill="#A1B1C2" />
<circle cx="50.0" cy="245.5" r="4" fill="#A1B1C2" />
<circle cx="50.0" cy="253.2" r="4" fill="#68ACE5" />
<circle cx="75.3" cy="253.2" r="4" fill="#68ACE5" />
<circle cx="75.3" cy="253.2" r="4" fill="#68ACE5" />
<circle cx="50.0" cy="262.3" r="4" fill="#68ACE5" />
<circle cx="75.3" cy="262.3" r="4" fill="#68ACE5" />
<circle cx="75.3" cy="262.3" r="4" fill="#68ACE5" />
<circle cx="50.0" cy="270.1" r="4" fill="#A1B1C2" />
<circle cx="75.3" cy="270.1" r="4" fill="#A1B1C2" />
<circle cx="50.0" cy="270.1" r="4" fill="#A1B1C2" />
<circle cx="75.3" cy="279.6" r="4" fill="#A1B1C2" />
<circle cx="50.0" cy="279.6" r="4" fill="#A1B1C2" />
<circle cx="50.0" cy="279.6" r="4" fill="#A1B1C2" />
<circle cx="75.3" cy="289.0" r="4" fill="#A1B1C2" />
<circle cx="50.0" cy="289.0" r="4" fill="#A1B1C2" />
<circle cx="50.0" cy="296.8" r="4" fill="#68ACE5" />
<line x1="0" y1="305.8833683672792" x2="800" y2="305.8833683672792" stroke="black" stroke-width="2" stroke-dasharray="5,5"/>
<text x="10" y="295.8833683672792" font-family="Arial" font-size="16">Twin Plane (10-11)</text>
</svg>